<mxfile host="app.diagrams.net" modified="2020-10-23T19:55:43.780Z" agent="5.0 (Windows NT 10.0; Win64; x64) AppleWebKit/537.36 (KHTML, like Gecko) Chrome/86.0.4240.111 Safari/537.36" etag="O5CFJG4jkrHu_Z1nNYEh" version="13.8.1" type="github">
  <diagram id="UriEQa8C2BqxbSiIbaLs" name="Page-1">
    <mxGraphModel dx="1014" dy="529" grid="1" gridSize="10" guides="1" tooltips="1" connect="1" arrows="1" fold="1" page="1" pageScale="1" pageWidth="827" pageHeight="1169" math="0" shadow="0">
      <root>
        <mxCell id="0" />
        <mxCell id="1" parent="0" />
        <mxCell id="NcA4P1eKTkoyZQPD7PHx-1" value="SEM" style="swimlane;fontStyle=0;childLayout=stackLayout;horizontal=1;startSize=26;fillColor=none;horizontalStack=0;resizeParent=1;resizeParentMax=0;resizeLast=0;collapsible=1;marginBottom=0;" parent="1" vertex="1">
          <mxGeometry x="30" y="45" width="140" height="104" as="geometry" />
        </mxCell>
        <mxCell id="NcA4P1eKTkoyZQPD7PHx-2" value="+ field: type" style="text;strokeColor=none;fillColor=none;align=left;verticalAlign=top;spacingLeft=4;spacingRight=4;overflow=hidden;rotatable=0;points=[[0,0.5],[1,0.5]];portConstraint=eastwest;" parent="NcA4P1eKTkoyZQPD7PHx-1" vertex="1">
          <mxGeometry y="26" width="140" height="26" as="geometry" />
        </mxCell>
        <mxCell id="NcA4P1eKTkoyZQPD7PHx-3" value="+ field: type" style="text;strokeColor=none;fillColor=none;align=left;verticalAlign=top;spacingLeft=4;spacingRight=4;overflow=hidden;rotatable=0;points=[[0,0.5],[1,0.5]];portConstraint=eastwest;" parent="NcA4P1eKTkoyZQPD7PHx-1" vertex="1">
          <mxGeometry y="52" width="140" height="26" as="geometry" />
        </mxCell>
        <mxCell id="NcA4P1eKTkoyZQPD7PHx-4" value="+ field: type" style="text;strokeColor=none;fillColor=none;align=left;verticalAlign=top;spacingLeft=4;spacingRight=4;overflow=hidden;rotatable=0;points=[[0,0.5],[1,0.5]];portConstraint=eastwest;" parent="NcA4P1eKTkoyZQPD7PHx-1" vertex="1">
          <mxGeometry y="78" width="140" height="26" as="geometry" />
        </mxCell>
        <mxCell id="VB39YqvQ5aaG4hXCd4-X-29" value="«interface»&lt;br&gt;&lt;b&gt;RegistroDeEstacionamiento&lt;/b&gt;" style="html=1;" parent="1" vertex="1">
          <mxGeometry x="360" y="60" width="170" height="50" as="geometry" />
        </mxCell>
        <mxCell id="VB39YqvQ5aaG4hXCd4-X-38" value="registros" style="endArrow=block;endFill=1;html=1;edgeStyle=orthogonalEdgeStyle;align=left;verticalAlign=top;entryX=0;entryY=0.5;entryDx=0;entryDy=0;exitX=1;exitY=0.5;exitDx=0;exitDy=0;" parent="1" source="NcA4P1eKTkoyZQPD7PHx-2" target="VB39YqvQ5aaG4hXCd4-X-29" edge="1">
          <mxGeometry x="0.0052" y="-5" relative="1" as="geometry">
            <mxPoint x="190" y="85" as="sourcePoint" />
            <mxPoint x="350" y="85" as="targetPoint" />
            <mxPoint x="-5" y="-5" as="offset" />
          </mxGeometry>
        </mxCell>
        <mxCell id="VB39YqvQ5aaG4hXCd4-X-39" value="1" style="edgeLabel;resizable=0;html=1;align=left;verticalAlign=bottom;" parent="VB39YqvQ5aaG4hXCd4-X-38" connectable="0" vertex="1">
          <mxGeometry x="-1" relative="1" as="geometry" />
        </mxCell>
        <mxCell id="VB39YqvQ5aaG4hXCd4-X-40" value="*" style="edgeLabel;resizable=0;html=1;align=left;verticalAlign=bottom;" parent="1" connectable="0" vertex="1">
          <mxGeometry x="344" y="85" as="geometry" />
        </mxCell>
        <mxCell id="VB39YqvQ5aaG4hXCd4-X-41" value="«interface»&lt;br&gt;&lt;b&gt;GeneradorDeRegistros&lt;/b&gt;" style="html=1;" parent="1" vertex="1">
          <mxGeometry x="30" y="225" width="150" height="50" as="geometry" />
        </mxCell>
        <mxCell id="VB39YqvQ5aaG4hXCd4-X-42" value="sistema" style="endArrow=block;endFill=1;html=1;edgeStyle=orthogonalEdgeStyle;align=left;verticalAlign=top;exitX=0.535;exitY=0;exitDx=0;exitDy=0;exitPerimeter=0;entryX=0.586;entryY=1.038;entryDx=0;entryDy=0;entryPerimeter=0;" parent="1" source="VB39YqvQ5aaG4hXCd4-X-41" target="NcA4P1eKTkoyZQPD7PHx-4" edge="1">
          <mxGeometry x="0.035" relative="1" as="geometry">
            <mxPoint x="110" y="219" as="sourcePoint" />
            <mxPoint x="110" y="155" as="targetPoint" />
            <Array as="points" />
            <mxPoint as="offset" />
          </mxGeometry>
        </mxCell>
        <mxCell id="VB39YqvQ5aaG4hXCd4-X-43" value="*" style="edgeLabel;resizable=0;html=1;align=left;verticalAlign=bottom;" parent="VB39YqvQ5aaG4hXCd4-X-42" connectable="0" vertex="1">
          <mxGeometry x="-1" relative="1" as="geometry" />
        </mxCell>
        <mxCell id="VB39YqvQ5aaG4hXCd4-X-44" value="1" style="edgeLabel;resizable=0;html=1;align=left;verticalAlign=bottom;" parent="1" connectable="0" vertex="1">
          <mxGeometry x="120.25" y="245" as="geometry">
            <mxPoint x="-8" y="-73" as="offset" />
          </mxGeometry>
        </mxCell>
        <mxCell id="VB39YqvQ5aaG4hXCd4-X-56" value="" style="endArrow=block;dashed=1;endFill=0;endSize=12;html=1;entryX=0.75;entryY=1;entryDx=0;entryDy=0;exitX=0.372;exitY=0.005;exitDx=0;exitDy=0;exitPerimeter=0;" parent="1" source="VB39YqvQ5aaG4hXCd4-X-45" target="VB39YqvQ5aaG4hXCd4-X-41" edge="1">
          <mxGeometry width="160" relative="1" as="geometry">
            <mxPoint x="75" y="385" as="sourcePoint" />
            <mxPoint x="125" y="295" as="targetPoint" />
          </mxGeometry>
        </mxCell>
        <mxCell id="VB39YqvQ5aaG4hXCd4-X-57" value="" style="endArrow=block;dashed=1;endFill=0;endSize=12;html=1;exitX=0.335;exitY=-0.009;exitDx=0;exitDy=0;exitPerimeter=0;entryX=0.334;entryY=1.044;entryDx=0;entryDy=0;entryPerimeter=0;" parent="1" source="VB39YqvQ5aaG4hXCd4-X-49" target="VB39YqvQ5aaG4hXCd4-X-41" edge="1">
          <mxGeometry width="160" relative="1" as="geometry">
            <mxPoint x="230" y="365" as="sourcePoint" />
            <mxPoint x="150" y="275" as="targetPoint" />
          </mxGeometry>
        </mxCell>
        <mxCell id="VB39YqvQ5aaG4hXCd4-X-49" value="AplicacionCliente" style="swimlane;fontStyle=1;align=center;verticalAlign=top;childLayout=stackLayout;horizontal=1;startSize=26;horizontalStack=0;resizeParent=1;resizeParentMax=0;resizeLast=0;collapsible=1;marginBottom=0;" parent="1" vertex="1">
          <mxGeometry x="10" y="373" width="160" height="86" as="geometry" />
        </mxCell>
        <mxCell id="VB39YqvQ5aaG4hXCd4-X-50" value="+ field: type" style="text;strokeColor=none;fillColor=none;align=left;verticalAlign=top;spacingLeft=4;spacingRight=4;overflow=hidden;rotatable=0;points=[[0,0.5],[1,0.5]];portConstraint=eastwest;" parent="VB39YqvQ5aaG4hXCd4-X-49" vertex="1">
          <mxGeometry y="26" width="160" height="26" as="geometry" />
        </mxCell>
        <mxCell id="VB39YqvQ5aaG4hXCd4-X-51" value="" style="line;strokeWidth=1;fillColor=none;align=left;verticalAlign=middle;spacingTop=-1;spacingLeft=3;spacingRight=3;rotatable=0;labelPosition=right;points=[];portConstraint=eastwest;" parent="VB39YqvQ5aaG4hXCd4-X-49" vertex="1">
          <mxGeometry y="52" width="160" height="8" as="geometry" />
        </mxCell>
        <mxCell id="VB39YqvQ5aaG4hXCd4-X-52" value="+ method(type): type" style="text;strokeColor=none;fillColor=none;align=left;verticalAlign=top;spacingLeft=4;spacingRight=4;overflow=hidden;rotatable=0;points=[[0,0.5],[1,0.5]];portConstraint=eastwest;" parent="VB39YqvQ5aaG4hXCd4-X-49" vertex="1">
          <mxGeometry y="60" width="160" height="26" as="geometry" />
        </mxCell>
        <mxCell id="VB39YqvQ5aaG4hXCd4-X-45" value="PuntoDeVenta" style="swimlane;fontStyle=1;align=center;verticalAlign=top;childLayout=stackLayout;horizontal=1;startSize=26;horizontalStack=0;resizeParent=1;resizeParentMax=0;resizeLast=0;collapsible=1;marginBottom=0;" parent="1" vertex="1">
          <mxGeometry x="184" y="373" width="160" height="86" as="geometry" />
        </mxCell>
        <mxCell id="VB39YqvQ5aaG4hXCd4-X-46" value="+ field: type" style="text;strokeColor=none;fillColor=none;align=left;verticalAlign=top;spacingLeft=4;spacingRight=4;overflow=hidden;rotatable=0;points=[[0,0.5],[1,0.5]];portConstraint=eastwest;" parent="VB39YqvQ5aaG4hXCd4-X-45" vertex="1">
          <mxGeometry y="26" width="160" height="26" as="geometry" />
        </mxCell>
        <mxCell id="VB39YqvQ5aaG4hXCd4-X-47" value="" style="line;strokeWidth=1;fillColor=none;align=left;verticalAlign=middle;spacingTop=-1;spacingLeft=3;spacingRight=3;rotatable=0;labelPosition=right;points=[];portConstraint=eastwest;" parent="VB39YqvQ5aaG4hXCd4-X-45" vertex="1">
          <mxGeometry y="52" width="160" height="8" as="geometry" />
        </mxCell>
        <mxCell id="VB39YqvQ5aaG4hXCd4-X-48" value="+ method(type): type" style="text;strokeColor=none;fillColor=none;align=left;verticalAlign=top;spacingLeft=4;spacingRight=4;overflow=hidden;rotatable=0;points=[[0,0.5],[1,0.5]];portConstraint=eastwest;" parent="VB39YqvQ5aaG4hXCd4-X-45" vertex="1">
          <mxGeometry y="60" width="160" height="26" as="geometry" />
        </mxCell>
        <mxCell id="VB39YqvQ5aaG4hXCd4-X-58" value="Zona" style="swimlane;fontStyle=0;childLayout=stackLayout;horizontal=1;startSize=26;fillColor=none;horizontalStack=0;resizeParent=1;resizeParentMax=0;resizeLast=0;collapsible=1;marginBottom=0;" parent="1" vertex="1">
          <mxGeometry x="414" y="245" width="140" height="104" as="geometry" />
        </mxCell>
        <mxCell id="VB39YqvQ5aaG4hXCd4-X-59" value="+ field: type" style="text;strokeColor=none;fillColor=none;align=left;verticalAlign=top;spacingLeft=4;spacingRight=4;overflow=hidden;rotatable=0;points=[[0,0.5],[1,0.5]];portConstraint=eastwest;" parent="VB39YqvQ5aaG4hXCd4-X-58" vertex="1">
          <mxGeometry y="26" width="140" height="26" as="geometry" />
        </mxCell>
        <mxCell id="VB39YqvQ5aaG4hXCd4-X-60" value="+ field: type" style="text;strokeColor=none;fillColor=none;align=left;verticalAlign=top;spacingLeft=4;spacingRight=4;overflow=hidden;rotatable=0;points=[[0,0.5],[1,0.5]];portConstraint=eastwest;" parent="VB39YqvQ5aaG4hXCd4-X-58" vertex="1">
          <mxGeometry y="52" width="140" height="26" as="geometry" />
        </mxCell>
        <mxCell id="VB39YqvQ5aaG4hXCd4-X-61" value="+ field: type" style="text;strokeColor=none;fillColor=none;align=left;verticalAlign=top;spacingLeft=4;spacingRight=4;overflow=hidden;rotatable=0;points=[[0,0.5],[1,0.5]];portConstraint=eastwest;" parent="VB39YqvQ5aaG4hXCd4-X-58" vertex="1">
          <mxGeometry y="78" width="140" height="26" as="geometry" />
        </mxCell>
        <mxCell id="VB39YqvQ5aaG4hXCd4-X-62" value="Gps" style="swimlane;fontStyle=0;childLayout=stackLayout;horizontal=1;startSize=26;fillColor=none;horizontalStack=0;resizeParent=1;resizeParentMax=0;resizeLast=0;collapsible=1;marginBottom=0;" parent="1" vertex="1">
          <mxGeometry x="10" y="525" width="140" height="104" as="geometry" />
        </mxCell>
        <mxCell id="VB39YqvQ5aaG4hXCd4-X-63" value="+ field: type" style="text;strokeColor=none;fillColor=none;align=left;verticalAlign=top;spacingLeft=4;spacingRight=4;overflow=hidden;rotatable=0;points=[[0,0.5],[1,0.5]];portConstraint=eastwest;" parent="VB39YqvQ5aaG4hXCd4-X-62" vertex="1">
          <mxGeometry y="26" width="140" height="26" as="geometry" />
        </mxCell>
        <mxCell id="VB39YqvQ5aaG4hXCd4-X-64" value="+ field: type" style="text;strokeColor=none;fillColor=none;align=left;verticalAlign=top;spacingLeft=4;spacingRight=4;overflow=hidden;rotatable=0;points=[[0,0.5],[1,0.5]];portConstraint=eastwest;" parent="VB39YqvQ5aaG4hXCd4-X-62" vertex="1">
          <mxGeometry y="52" width="140" height="26" as="geometry" />
        </mxCell>
        <mxCell id="VB39YqvQ5aaG4hXCd4-X-65" value="+ field: type" style="text;strokeColor=none;fillColor=none;align=left;verticalAlign=top;spacingLeft=4;spacingRight=4;overflow=hidden;rotatable=0;points=[[0,0.5],[1,0.5]];portConstraint=eastwest;" parent="VB39YqvQ5aaG4hXCd4-X-62" vertex="1">
          <mxGeometry y="78" width="140" height="26" as="geometry" />
        </mxCell>
        <mxCell id="VB39YqvQ5aaG4hXCd4-X-67" value="gps" style="endArrow=block;endFill=1;html=1;edgeStyle=orthogonalEdgeStyle;align=left;verticalAlign=top;exitX=0.188;exitY=1.02;exitDx=0;exitDy=0;exitPerimeter=0;entryX=0.585;entryY=0.015;entryDx=0;entryDy=0;entryPerimeter=0;" parent="1" source="VB39YqvQ5aaG4hXCd4-X-52" target="VB39YqvQ5aaG4hXCd4-X-62" edge="1">
          <mxGeometry x="-0.1185" y="27" relative="1" as="geometry">
            <mxPoint x="79" y="470" as="sourcePoint" />
            <mxPoint x="79" y="525" as="targetPoint" />
            <mxPoint x="-1" as="offset" />
          </mxGeometry>
        </mxCell>
        <mxCell id="VB39YqvQ5aaG4hXCd4-X-68" value="*" style="edgeLabel;resizable=0;html=1;align=left;verticalAlign=bottom;" parent="VB39YqvQ5aaG4hXCd4-X-67" connectable="0" vertex="1">
          <mxGeometry x="-1" relative="1" as="geometry">
            <mxPoint x="-14" y="19" as="offset" />
          </mxGeometry>
        </mxCell>
        <mxCell id="VB39YqvQ5aaG4hXCd4-X-69" value="1" style="edgeLabel;resizable=0;html=1;align=left;verticalAlign=bottom;" parent="1" connectable="0" vertex="1">
          <mxGeometry x="39.99999999999993" y="495" as="geometry">
            <mxPoint x="60" y="24" as="offset" />
          </mxGeometry>
        </mxCell>
        <mxCell id="VB39YqvQ5aaG4hXCd4-X-70" value="zona" style="endArrow=block;endFill=1;html=1;edgeStyle=orthogonalEdgeStyle;align=left;verticalAlign=top;exitX=0.692;exitY=0.005;exitDx=0;exitDy=0;exitPerimeter=0;" parent="1" source="VB39YqvQ5aaG4hXCd4-X-45" target="VB39YqvQ5aaG4hXCd4-X-60" edge="1">
          <mxGeometry x="-0.3606" y="-25" relative="1" as="geometry">
            <mxPoint x="340" y="225" as="sourcePoint" />
            <mxPoint x="500" y="225" as="targetPoint" />
            <mxPoint as="offset" />
          </mxGeometry>
        </mxCell>
        <mxCell id="VB39YqvQ5aaG4hXCd4-X-71" value="*" style="edgeLabel;resizable=0;html=1;align=left;verticalAlign=bottom;" parent="VB39YqvQ5aaG4hXCd4-X-70" connectable="0" vertex="1">
          <mxGeometry x="-1" relative="1" as="geometry" />
        </mxCell>
        <mxCell id="VB39YqvQ5aaG4hXCd4-X-72" value="1" style="edgeLabel;resizable=0;html=1;align=left;verticalAlign=bottom;" parent="1" connectable="0" vertex="1">
          <mxGeometry x="304.72" y="383.42999999999995" as="geometry">
            <mxPoint x="91" y="-50" as="offset" />
          </mxGeometry>
        </mxCell>
        <mxCell id="VB39YqvQ5aaG4hXCd4-X-73" value="zona" style="endArrow=block;endFill=1;html=1;edgeStyle=orthogonalEdgeStyle;align=left;verticalAlign=top;exitX=0.5;exitY=1;exitDx=0;exitDy=0;entryX=0.25;entryY=0;entryDx=0;entryDy=0;" parent="1" source="VB39YqvQ5aaG4hXCd4-X-29" target="VB39YqvQ5aaG4hXCd4-X-58" edge="1">
          <mxGeometry x="0.2806" y="11" relative="1" as="geometry">
            <mxPoint x="370" y="215" as="sourcePoint" />
            <mxPoint x="530" y="215" as="targetPoint" />
            <mxPoint as="offset" />
          </mxGeometry>
        </mxCell>
        <mxCell id="VB39YqvQ5aaG4hXCd4-X-74" value="*" style="edgeLabel;resizable=0;html=1;align=left;verticalAlign=bottom;" parent="VB39YqvQ5aaG4hXCd4-X-73" connectable="0" vertex="1">
          <mxGeometry x="-1" relative="1" as="geometry">
            <mxPoint x="-15" y="25" as="offset" />
          </mxGeometry>
        </mxCell>
        <mxCell id="VB39YqvQ5aaG4hXCd4-X-75" value="1" style="edgeLabel;resizable=0;html=1;align=left;verticalAlign=bottom;" parent="1" connectable="0" vertex="1">
          <mxGeometry x="440" y="145" as="geometry">
            <mxPoint x="-6" y="96" as="offset" />
          </mxGeometry>
        </mxCell>
        <mxCell id="VB39YqvQ5aaG4hXCd4-X-76" value="AplicacionInspector" style="swimlane;fontStyle=0;childLayout=stackLayout;horizontal=1;startSize=26;fillColor=none;horizontalStack=0;resizeParent=1;resizeParentMax=0;resizeLast=0;collapsible=1;marginBottom=0;" parent="1" vertex="1">
          <mxGeometry x="620" y="60" width="140" height="104" as="geometry" />
        </mxCell>
        <mxCell id="VB39YqvQ5aaG4hXCd4-X-77" value="+ field: type" style="text;strokeColor=none;fillColor=none;align=left;verticalAlign=top;spacingLeft=4;spacingRight=4;overflow=hidden;rotatable=0;points=[[0,0.5],[1,0.5]];portConstraint=eastwest;" parent="VB39YqvQ5aaG4hXCd4-X-76" vertex="1">
          <mxGeometry y="26" width="140" height="26" as="geometry" />
        </mxCell>
        <mxCell id="VB39YqvQ5aaG4hXCd4-X-78" value="+ field: type" style="text;strokeColor=none;fillColor=none;align=left;verticalAlign=top;spacingLeft=4;spacingRight=4;overflow=hidden;rotatable=0;points=[[0,0.5],[1,0.5]];portConstraint=eastwest;" parent="VB39YqvQ5aaG4hXCd4-X-76" vertex="1">
          <mxGeometry y="52" width="140" height="26" as="geometry" />
        </mxCell>
        <mxCell id="VB39YqvQ5aaG4hXCd4-X-79" value="+ field: type" style="text;strokeColor=none;fillColor=none;align=left;verticalAlign=top;spacingLeft=4;spacingRight=4;overflow=hidden;rotatable=0;points=[[0,0.5],[1,0.5]];portConstraint=eastwest;" parent="VB39YqvQ5aaG4hXCd4-X-76" vertex="1">
          <mxGeometry y="78" width="140" height="26" as="geometry" />
        </mxCell>
        <mxCell id="VB39YqvQ5aaG4hXCd4-X-5" value="Cliente" style="swimlane;fontStyle=0;childLayout=stackLayout;horizontal=1;startSize=26;fillColor=none;horizontalStack=0;resizeParent=1;resizeParentMax=0;resizeLast=0;collapsible=1;marginBottom=0;" parent="1" vertex="1">
          <mxGeometry x="660" y="785" width="140" height="104" as="geometry" />
        </mxCell>
        <mxCell id="VB39YqvQ5aaG4hXCd4-X-6" value="+ field: type" style="text;strokeColor=none;fillColor=none;align=left;verticalAlign=top;spacingLeft=4;spacingRight=4;overflow=hidden;rotatable=0;points=[[0,0.5],[1,0.5]];portConstraint=eastwest;" parent="VB39YqvQ5aaG4hXCd4-X-5" vertex="1">
          <mxGeometry y="26" width="140" height="26" as="geometry" />
        </mxCell>
        <mxCell id="VB39YqvQ5aaG4hXCd4-X-7" value="+ field: type" style="text;strokeColor=none;fillColor=none;align=left;verticalAlign=top;spacingLeft=4;spacingRight=4;overflow=hidden;rotatable=0;points=[[0,0.5],[1,0.5]];portConstraint=eastwest;" parent="VB39YqvQ5aaG4hXCd4-X-5" vertex="1">
          <mxGeometry y="52" width="140" height="26" as="geometry" />
        </mxCell>
        <mxCell id="VB39YqvQ5aaG4hXCd4-X-8" value="+ field: type" style="text;strokeColor=none;fillColor=none;align=left;verticalAlign=top;spacingLeft=4;spacingRight=4;overflow=hidden;rotatable=0;points=[[0,0.5],[1,0.5]];portConstraint=eastwest;" parent="VB39YqvQ5aaG4hXCd4-X-5" vertex="1">
          <mxGeometry y="78" width="140" height="26" as="geometry" />
        </mxCell>
        <mxCell id="VB39YqvQ5aaG4hXCd4-X-1" value="Estacionamiento" style="swimlane;fontStyle=0;childLayout=stackLayout;horizontal=1;startSize=26;fillColor=none;horizontalStack=0;resizeParent=1;resizeParentMax=0;resizeLast=0;collapsible=1;marginBottom=0;" parent="1" vertex="1">
          <mxGeometry x="660" y="649" width="140" height="104" as="geometry" />
        </mxCell>
        <mxCell id="VB39YqvQ5aaG4hXCd4-X-2" value="+ field: type" style="text;strokeColor=none;fillColor=none;align=left;verticalAlign=top;spacingLeft=4;spacingRight=4;overflow=hidden;rotatable=0;points=[[0,0.5],[1,0.5]];portConstraint=eastwest;" parent="VB39YqvQ5aaG4hXCd4-X-1" vertex="1">
          <mxGeometry y="26" width="140" height="26" as="geometry" />
        </mxCell>
        <mxCell id="VB39YqvQ5aaG4hXCd4-X-3" value="+ field: type" style="text;strokeColor=none;fillColor=none;align=left;verticalAlign=top;spacingLeft=4;spacingRight=4;overflow=hidden;rotatable=0;points=[[0,0.5],[1,0.5]];portConstraint=eastwest;" parent="VB39YqvQ5aaG4hXCd4-X-1" vertex="1">
          <mxGeometry y="52" width="140" height="26" as="geometry" />
        </mxCell>
        <mxCell id="VB39YqvQ5aaG4hXCd4-X-4" value="+ field: type" style="text;strokeColor=none;fillColor=none;align=left;verticalAlign=top;spacingLeft=4;spacingRight=4;overflow=hidden;rotatable=0;points=[[0,0.5],[1,0.5]];portConstraint=eastwest;" parent="VB39YqvQ5aaG4hXCd4-X-1" vertex="1">
          <mxGeometry y="78" width="140" height="26" as="geometry" />
        </mxCell>
        <mxCell id="VB39YqvQ5aaG4hXCd4-X-13" value="Inspector" style="swimlane;fontStyle=0;childLayout=stackLayout;horizontal=1;startSize=26;fillColor=none;horizontalStack=0;resizeParent=1;resizeParentMax=0;resizeLast=0;collapsible=1;marginBottom=0;" parent="1" vertex="1">
          <mxGeometry x="620" y="245" width="140" height="104" as="geometry" />
        </mxCell>
        <mxCell id="VB39YqvQ5aaG4hXCd4-X-14" value="+ field: type" style="text;strokeColor=none;fillColor=none;align=left;verticalAlign=top;spacingLeft=4;spacingRight=4;overflow=hidden;rotatable=0;points=[[0,0.5],[1,0.5]];portConstraint=eastwest;" parent="VB39YqvQ5aaG4hXCd4-X-13" vertex="1">
          <mxGeometry y="26" width="140" height="26" as="geometry" />
        </mxCell>
        <mxCell id="VB39YqvQ5aaG4hXCd4-X-15" value="+ field: type" style="text;strokeColor=none;fillColor=none;align=left;verticalAlign=top;spacingLeft=4;spacingRight=4;overflow=hidden;rotatable=0;points=[[0,0.5],[1,0.5]];portConstraint=eastwest;" parent="VB39YqvQ5aaG4hXCd4-X-13" vertex="1">
          <mxGeometry y="52" width="140" height="26" as="geometry" />
        </mxCell>
        <mxCell id="VB39YqvQ5aaG4hXCd4-X-16" value="+ field: type" style="text;strokeColor=none;fillColor=none;align=left;verticalAlign=top;spacingLeft=4;spacingRight=4;overflow=hidden;rotatable=0;points=[[0,0.5],[1,0.5]];portConstraint=eastwest;" parent="VB39YqvQ5aaG4hXCd4-X-13" vertex="1">
          <mxGeometry y="78" width="140" height="26" as="geometry" />
        </mxCell>
        <mxCell id="VB39YqvQ5aaG4hXCd4-X-80" value="sistema" style="endArrow=block;endFill=1;html=1;edgeStyle=orthogonalEdgeStyle;align=left;verticalAlign=top;entryX=1.005;entryY=0.106;entryDx=0;entryDy=0;entryPerimeter=0;exitX=0;exitY=0;exitDx=0;exitDy=0;" parent="1" source="VB39YqvQ5aaG4hXCd4-X-76" target="NcA4P1eKTkoyZQPD7PHx-1" edge="1">
          <mxGeometry x="-0.6568" relative="1" as="geometry">
            <mxPoint x="370" y="245" as="sourcePoint" />
            <mxPoint x="530" y="245" as="targetPoint" />
            <Array as="points">
              <mxPoint x="620" y="35" />
              <mxPoint x="171" y="35" />
            </Array>
            <mxPoint as="offset" />
          </mxGeometry>
        </mxCell>
        <mxCell id="VB39YqvQ5aaG4hXCd4-X-81" value="*" style="edgeLabel;resizable=0;html=1;align=left;verticalAlign=bottom;" parent="VB39YqvQ5aaG4hXCd4-X-80" connectable="0" vertex="1">
          <mxGeometry x="-1" relative="1" as="geometry" />
        </mxCell>
        <mxCell id="VB39YqvQ5aaG4hXCd4-X-82" value="1" style="edgeLabel;resizable=0;html=1;align=left;verticalAlign=bottom;" parent="1" connectable="0" vertex="1">
          <mxGeometry x="610" y="70" as="geometry">
            <mxPoint x="-430" y="-11" as="offset" />
          </mxGeometry>
        </mxCell>
        <mxCell id="-4X8lpuKlx_NhxdMr4EA-1" value="aplicacion" style="endArrow=block;endFill=1;html=1;edgeStyle=orthogonalEdgeStyle;align=left;verticalAlign=top;entryX=0.443;entryY=1.077;entryDx=0;entryDy=0;entryPerimeter=0;exitX=0.457;exitY=0.01;exitDx=0;exitDy=0;exitPerimeter=0;" edge="1" parent="1" source="VB39YqvQ5aaG4hXCd4-X-13" target="VB39YqvQ5aaG4hXCd4-X-79">
          <mxGeometry x="0.0005" y="-16" relative="1" as="geometry">
            <mxPoint x="330" y="190" as="sourcePoint" />
            <mxPoint x="490" y="190" as="targetPoint" />
            <Array as="points">
              <mxPoint x="684" y="205" />
              <mxPoint x="682" y="205" />
            </Array>
            <mxPoint x="16" y="16" as="offset" />
          </mxGeometry>
        </mxCell>
        <mxCell id="-4X8lpuKlx_NhxdMr4EA-2" value="*" style="edgeLabel;resizable=0;html=1;align=left;verticalAlign=bottom;" connectable="0" vertex="1" parent="-4X8lpuKlx_NhxdMr4EA-1">
          <mxGeometry x="-1" relative="1" as="geometry" />
        </mxCell>
        <mxCell id="-4X8lpuKlx_NhxdMr4EA-3" value="1" style="edgeLabel;resizable=0;html=1;align=left;verticalAlign=bottom;" connectable="0" vertex="1" parent="1">
          <mxGeometry x="690" y="189.99999999999994" as="geometry" />
        </mxCell>
        <mxCell id="-4X8lpuKlx_NhxdMr4EA-4" value="«interface»&lt;br&gt;&lt;b&gt;Entidad&lt;/b&gt;" style="html=1;" vertex="1" parent="1">
          <mxGeometry x="680" y="579" width="110" height="50" as="geometry" />
        </mxCell>
        <mxCell id="-4X8lpuKlx_NhxdMr4EA-5" value="zona" style="endArrow=block;endFill=1;html=1;edgeStyle=orthogonalEdgeStyle;align=left;verticalAlign=top;entryX=1.01;entryY=0.086;entryDx=0;entryDy=0;entryPerimeter=0;exitX=0;exitY=0.5;exitDx=0;exitDy=0;" edge="1" parent="1" source="VB39YqvQ5aaG4hXCd4-X-15" target="VB39YqvQ5aaG4hXCd4-X-60">
          <mxGeometry x="-0.1247" y="7" relative="1" as="geometry">
            <mxPoint x="470" y="450" as="sourcePoint" />
            <mxPoint x="630" y="450" as="targetPoint" />
            <mxPoint as="offset" />
          </mxGeometry>
        </mxCell>
        <mxCell id="-4X8lpuKlx_NhxdMr4EA-6" value="1" style="edgeLabel;resizable=0;html=1;align=left;verticalAlign=bottom;" connectable="0" vertex="1" parent="-4X8lpuKlx_NhxdMr4EA-5">
          <mxGeometry x="-1" relative="1" as="geometry">
            <mxPoint x="-10" as="offset" />
          </mxGeometry>
        </mxCell>
        <mxCell id="-4X8lpuKlx_NhxdMr4EA-7" value="1" style="edgeLabel;resizable=0;html=1;align=left;verticalAlign=bottom;" connectable="0" vertex="1" parent="1">
          <mxGeometry x="560" y="297" as="geometry" />
        </mxCell>
      </root>
    </mxGraphModel>
  </diagram>
</mxfile>
